<svg width="142" height="138" viewBox="0 0 142 138" fill="none" xmlns="http://www.w3.org/2000/svg">
<path d="M114.142 26.5033L58.5545 35.9921C50.7109 37.6281 51.3929 22.5769 51.3929 11.7794L113.119 0.981812V17.3418C113.119 22.9041 116.87 23.2313 120.28 24.5401L141.765 31.0841V35.0105L114.142 26.5033Z" fill="#029499"/>
<path d="M59.5775 41.8817L34.6826 45.8081C34.6826 65.1128 37.0698 69.3664 41.8442 69.3664L66.398 65.7672C57.6075 65.713 60.4219 45.0741 59.5775 41.8817Z" fill="#029499"/>
<path d="M90.952 61.8408C83.1084 61.8408 84.8135 46.1353 84.4725 37.6281L113.119 32.7201V50.0617C113.119 53.4645 117.893 55.4059 120.28 55.9512L141.765 61.8408V65.7672L113.119 58.2416L90.952 61.8408Z" fill="#029499"/>
<path d="M113.119 65.1128L18.9954 79.8368C18.9954 101.759 23.0877 103.395 27.8621 103.395L114.142 89.6527L141.765 97.5055V93.5791L120.28 87.3623C110.731 85.0719 113.119 73.62 113.119 65.1128Z" fill="#029499"/>
<path d="M113.119 120.737L90.6109 124.336C82.7673 124.336 84.4724 107.976 84.4724 99.7959L113.119 95.5423C112.096 111.248 113.119 116.483 116.529 117.465L141.765 124.336V128.262L113.119 120.737Z" fill="#029499"/>
<path d="M36.0467 125.645C36.3195 131.665 39.9117 132.08 41.8442 132.189C31.9544 133.497 14.562 137.097 5.35437 137.751C-1.10745 138.21 0.579993 128.262 0.579944 113.538L36.0467 107.976C35.933 111.357 35.7739 119.624 36.0467 125.645Z" fill="#029499"/>
</svg>
